<svg width="86" height="86" viewBox="0 0 86 86" fill="none" xmlns="http://www.w3.org/2000/svg">
<g filter="url(#filter0_d)">
<rect x="3" y="3" width="80" height="80" rx="15" fill="white"/>
<g clip-path="url(#clip0)">
<path d="M66.2417 19.461C60.3157 10.9458 48.5182 8.45087 40.0371 13.8204L25.0864 23.3661C21.0089 25.9153 18.1818 30.0916 17.3663 34.8102C16.6596 38.7695 17.2576 42.8373 19.1604 46.3627C17.8556 48.3153 16.9858 50.4848 16.6052 52.7627C15.7354 57.5899 16.8771 62.5797 19.7041 66.539C25.6844 75.0543 37.4275 77.5492 45.9087 72.1797L60.8594 62.6882C64.9369 60.139 67.7639 55.9627 68.5794 51.2441C69.2862 47.2848 68.6881 43.217 66.7853 39.6916C68.0901 37.739 68.96 35.5695 69.3405 33.2916C70.2648 28.4102 69.1231 23.4204 66.2417 19.461Z" fill="#FF3E00"/>
<path d="M38.5692 67.3525C33.7306 68.6 28.6745 66.7017 25.8475 62.6339C24.1077 60.2474 23.4553 57.2644 23.9446 54.3356C24.0534 53.8474 24.1621 53.4135 24.2708 52.9254L24.5427 52.0576L25.3038 52.6C27.0979 53.9017 29.0551 54.8779 31.1753 55.5288L31.719 55.6915L31.6646 56.2339C31.6103 56.9932 31.8277 57.8067 32.2627 58.4576C33.1325 59.705 34.6548 60.3017 36.1227 59.922C36.4489 59.8135 36.7751 59.705 37.0469 59.5423L51.9433 50.0508C52.7044 49.5627 53.1937 48.8576 53.3568 47.9898C53.5199 47.122 53.3024 46.2 52.8131 45.4949C51.9433 44.2474 50.421 43.705 48.9531 44.0847C48.6269 44.1932 48.3007 44.3017 48.0289 44.4644L42.3204 48.0983C41.3962 48.6949 40.3633 49.1288 39.2759 49.4C34.4373 50.6474 29.3813 48.7491 26.5542 44.6813C24.8689 42.2949 24.1621 39.3118 24.7058 36.383C25.1951 33.5627 26.9348 31.0135 29.3813 29.4949L44.332 20.0033C45.2562 19.4067 46.2892 18.9728 47.3765 18.6474C52.2151 17.4 57.2712 19.2983 60.0982 23.3661C61.8379 25.7525 62.4903 28.7355 62.001 31.6644C61.8923 32.1525 61.7836 32.5864 61.6205 33.0745L61.3486 33.9423L60.5875 33.4C58.7934 32.0983 56.8362 31.122 54.7159 30.4711L54.1723 30.3084L54.2267 29.7661C54.281 29.0067 54.0636 28.1932 53.6286 27.5423C52.7588 26.2949 51.2365 25.7525 49.7686 26.1322C49.4424 26.2406 49.1162 26.3491 48.8444 26.5118L33.948 36.0033C33.1869 36.4915 32.6976 37.1966 32.5345 38.0644C32.3714 38.9322 32.5889 39.8542 33.0782 40.5593C33.948 41.8067 35.4703 42.3491 36.9382 41.9694C37.2644 41.861 37.5906 41.7525 37.8624 41.5898L43.5709 37.9559C44.4951 37.3593 45.528 36.9254 46.6154 36.6C51.454 35.3525 56.51 37.2508 59.3371 41.3186C61.0768 43.705 61.7292 46.6881 61.2399 49.6169C60.7506 52.4372 59.0109 54.9864 56.5644 56.505L41.6137 65.9966C40.6894 66.5932 39.6565 67.0271 38.5692 67.3525Z" fill="white"/>
</g>
</g>
<defs>
<filter id="filter0_d" x="0" y="0" width="86" height="86" filterUnits="userSpaceOnUse" color-interpolation-filters="sRGB">
<feFlood flood-opacity="0" result="BackgroundImageFix"/>
<feColorMatrix in="SourceAlpha" type="matrix" values="0 0 0 0 0 0 0 0 0 0 0 0 0 0 0 0 0 0 127 0" result="hardAlpha"/>
<feOffset/>
<feColorMatrix type="matrix" values="0 0 0 0 0.192157 0 0 0 0 0.196078 0 0 0 0 0.192157 0 0 0 0.4 0"/>
<feBlend mode="normal" in2="BackgroundImageFix" result="effect1_dropShadow"/>
<feBlend mode="normal" in="SourceGraphic" in2="effect1_dropShadow" result="shape"/>
</filter>
<clipPath id="clip0">
<rect width="53.3333" height="64" fill="white" transform="translate(16.3333 11)"/>
</clipPath>
</defs>
</svg>
