<svg width="60" height="60" viewBox="0 0 60 60" fill="none" xmlns="http://www.w3.org/2000/svg">
<path d="M14.4311 17.0742L7.26502 29.2086C7.04477 29.5816 7.04239 30.0443 7.25878 30.4193L8.94279 33.3382C9.40455 34.1386 10.5594 34.1381 11.021 33.3374L17.2417 22.5471C17.4539 22.179 17.8447 21.9505 18.2693 21.9463L31.2118 21.8181C32.1195 21.8091 32.6891 20.8336 32.251 20.0382L30.6352 17.105C30.4243 16.7221 30.0219 16.4843 29.5849 16.4843L15.4643 16.4843C15.0399 16.4843 14.647 16.7086 14.4311 17.0742Z" fill="#FFFEED"/>
<path d="M18.0884 10.5613L16.4139 13.4409C15.9485 14.2411 16.5252 15.2446 17.4504 15.2446L30.2663 15.2446C30.691 15.2446 31.0839 15.4692 31.2995 15.8352L37.702 26.7023C38.1764 27.5075 39.3481 27.4848 39.7915 26.6619L41.2157 24.0185C41.4105 23.657 41.4071 23.221 41.2067 22.8627L34.3915 10.6803C34.181 10.3039 33.7847 10.0696 33.3536 10.0665L19.1343 9.96442C18.704 9.96133 18.3049 10.1891 18.0884 10.5613Z" fill="#FFFEED"/>
<path d="M40.8482 10.1385L37.6491 10.098C36.7237 10.0862 36.1337 11.0831 36.5892 11.8892L42.7865 22.8574C42.9905 23.2185 42.9937 23.6594 42.795 24.0235L36.824 34.9618C36.3874 35.7617 36.9657 36.7373 37.8765 36.7373H41.016C41.4449 36.7373 41.8412 36.5082 42.0555 36.1364L48.9415 24.1922C49.1556 23.8209 49.1555 23.3636 48.9414 22.9924L41.8716 10.7384C41.6601 10.3719 41.2712 10.1439 40.8482 10.1385Z" fill="#FFFEED"/>
<path d="M52.7425 29.5807L51.0585 26.6619C50.5967 25.8615 49.4419 25.862 48.9803 26.6627L42.7598 37.4525C42.5475 37.8208 42.1562 38.0494 41.7313 38.0532L28.9486 38.1703C28.0434 38.1785 27.4728 39.1487 27.9053 39.9443L29.5061 42.8892C29.716 43.2754 30.1202 43.5158 30.5596 43.5158L44.5369 43.5158C44.9613 43.5158 45.3542 43.2915 45.5701 42.9259L52.7362 30.7914C52.9565 30.4185 52.9589 29.9558 52.7425 29.5807Z" fill="#FFFEED"/>
<path d="M29.7571 44.7605L42.5625 44.8525C43.4908 44.8592 44.0598 45.8729 43.5825 46.6697L41.9153 49.4524C41.6969 49.8169 41.3021 50.0388 40.8774 50.0357L26.6227 49.9334C26.205 49.9304 25.819 49.7102 25.6037 49.3522L18.3719 37.3279C18.1427 36.9469 18.1429 36.4702 18.3725 36.0893L20.4304 32.6737C20.9092 31.8791 22.0692 31.9048 22.5119 32.7198L28.7119 44.1337C28.9203 44.5173 29.3206 44.7574 29.7571 44.7605Z" fill="#FFFEED"/>
<path d="M16.9864 37.3207L23.2811 48.2313C23.7373 49.022 23.1788 50.0129 22.2663 50.0317L19.3259 50.092C18.8887 50.101 18.4813 49.8712 18.2627 49.4923L11.0598 37.0077C10.8457 36.6365 10.8457 36.1792 11.0598 35.8079L17.9695 23.8223C18.1839 23.4506 18.5802 23.2215 19.0091 23.2215H22.612C23.5447 23.2215 24.1204 24.2397 23.64 25.0398L16.9971 36.1025C16.7725 36.4765 16.7684 36.9429 16.9864 37.3207Z" fill="#FFFEED"/>
<path d="M33.8057 28.5354C33.8057 28.859 33.5436 29.1213 33.2202 29.1213C32.8969 29.1213 32.6348 28.859 32.6348 28.5354C32.6348 28.2119 32.8969 27.9496 33.2202 27.9496C33.5436 27.9496 33.8057 28.2119 33.8057 28.5354Z" fill="#FFFEED"/>
<path d="M33.8057 30.293C33.8057 30.6165 33.5436 30.8788 33.2202 30.8788C32.8969 30.8788 32.6348 30.6165 32.6348 30.293C32.6348 29.9694 32.8969 29.7071 33.2202 29.7071C33.5436 29.7071 33.8057 29.9694 33.8057 30.293Z" fill="#FFFEED"/>
<path d="M33.8057 32.0505C33.8057 32.374 33.5436 32.6363 33.2202 32.6363C32.8969 32.6363 32.6348 32.374 32.6348 32.0505C32.6348 31.7269 32.8969 31.4646 33.2202 31.4646C33.5436 31.4646 33.8057 31.7269 33.8057 32.0505Z" fill="#FFFEED"/>
<path d="M33.5182 24.9101L32.6381 24.374C31.8384 23.8869 30.8138 24.4625 30.8138 25.3989V32.8482C30.8138 33.484 30.3697 34.0334 29.7481 34.1668C29.2565 34.2722 28.7444 34.2224 28.2823 34.0242L28.0818 33.9382L28.6558 33.6829C29.0227 33.5198 29.2684 33.1662 29.2934 32.7655L29.2992 32.6734C29.3445 31.9478 28.7663 31.3345 28.0393 31.3345C27.3453 31.3345 26.7809 31.8971 26.7809 32.5911V32.7649C26.7809 34.1103 27.9091 35.1807 29.2527 35.1099C30.5963 35.1807 31.7245 34.1103 31.7245 32.7649V27.1532C31.7245 26.6942 32.2189 26.4052 32.6188 26.6303L32.9117 26.7952C33.3117 27.0204 33.806 26.7313 33.806 26.2724V25.4225C33.806 25.2132 33.6969 25.019 33.5182 24.9101Z" fill="#FFFEED"/>
</svg>
