<svg width="86" height="86" viewBox="0 0 86 86" fill="none" xmlns="http://www.w3.org/2000/svg">
<g filter="url(#filter0_d_620_117)">
<path d="M67 3H19C10.1634 3 3 10.1634 3 19V67C3 75.8366 10.1634 83 19 83H67C75.8366 83 83 75.8366 83 67V19C83 10.1634 75.8366 3 67 3Z" fill="white"/>
<path d="M19.4638 57.1539L21.6201 58.3989L45.6427 16.7919L43.4863 15.5469L19.4638 57.1539Z" fill="#E535AB"/>
<path d="M67.015 53.8301H18.97V56.32H67.015V53.8301Z" fill="#E535AB"/>
<path d="M19.9207 55.2289L43.9522 69.1039L45.1972 66.9475L21.1657 53.0725L19.9207 55.2289Z" fill="#E535AB"/>
<path d="M40.7969 19.067L64.8284 32.942L66.0734 30.7857L42.0419 16.9107L40.7969 19.067Z" fill="#E535AB"/>
<path d="M19.9273 30.7763L21.1723 32.9326L45.2038 19.0576L43.9588 16.9013L19.9273 30.7763Z" fill="#E535AB"/>
<path d="M40.3628 16.7924L64.3853 58.3994L66.5416 57.1544L42.5191 15.5474L40.3628 16.7924Z" fill="#E535AB"/>
<path d="M23.365 29.125H20.875V56.875H23.365V29.125Z" fill="#E535AB"/>
<path d="M65.125 29.125H62.635V56.875H65.125V29.125Z" fill="#E535AB"/>
<path d="M42.4408 66.1664L43.5283 68.0499L64.4292 55.9824L63.3417 54.0989L42.4408 66.1664Z" fill="#E535AB"/>
<path d="M68.425 57.6851C66.985 60.1901 63.775 61.0451 61.27 59.6051C58.765 58.1651 57.91 54.9551 59.35 52.4501C60.79 49.9451 64 49.0901 66.505 50.5301C69.025 51.9851 69.88 55.1801 68.425 57.6851Z" fill="#E535AB"/>
<path d="M26.635 33.5501C25.195 36.0551 21.985 36.9101 19.48 35.4701C16.975 34.0301 16.12 30.8201 17.56 28.3151C19 25.8101 22.21 24.9551 24.715 26.3951C27.22 27.8501 28.075 31.0451 26.635 33.5501Z" fill="#E535AB"/>
<path d="M17.575 57.6851C16.135 55.1801 16.99 51.9851 19.495 50.5301C22 49.0901 25.195 49.9451 26.65 52.4501C28.09 54.9551 27.235 58.1501 24.73 59.6051C22.21 61.0451 19.015 60.1901 17.575 57.6851Z" fill="#E535AB"/>
<path d="M59.365 33.5501C57.925 31.0451 58.78 27.8501 61.285 26.3951C63.79 24.9551 66.985 25.8101 68.44 28.3151C69.88 30.8201 69.025 34.0151 66.52 35.4701C64.015 36.9101 60.805 36.0551 59.365 33.5501Z" fill="#E535AB"/>
<path d="M43 72.37C40.105 72.37 37.765 70.03 37.765 67.135C37.765 64.24 40.105 61.9 43 61.9C45.895 61.9 48.235 64.24 48.235 67.135C48.235 70.015 45.895 72.37 43 72.37Z" fill="#E535AB"/>
<path d="M43 24.1C40.105 24.1 37.765 21.76 37.765 18.865C37.765 15.97 40.105 13.63 43 13.63C45.895 13.63 48.235 15.97 48.235 18.865C48.235 21.76 45.895 24.1 43 24.1Z" fill="#E535AB"/>
</g>
<defs>
<filter id="filter0_d_620_117" x="0" y="0" width="86" height="86" filterUnits="userSpaceOnUse" color-interpolation-filters="sRGB">
<feFlood flood-opacity="0" result="BackgroundImageFix"/>
<feColorMatrix in="SourceAlpha" type="matrix" values="0 0 0 0 0 0 0 0 0 0 0 0 0 0 0 0 0 0 127 0" result="hardAlpha"/>
<feOffset/>
<feGaussianBlur stdDeviation="1.5"/>
<feColorMatrix type="matrix" values="0 0 0 0 0.192157 0 0 0 0 0.196078 0 0 0 0 0.192157 0 0 0 0.4 0"/>
<feBlend mode="normal" in2="BackgroundImageFix" result="effect1_dropShadow_620_117"/>
<feBlend mode="normal" in="SourceGraphic" in2="effect1_dropShadow_620_117" result="shape"/>
</filter>
</defs>
</svg>
