<svg width="86" height="86" viewBox="0 0 86 86" fill="none" xmlns="http://www.w3.org/2000/svg">
<g filter="url(#filter0_d_620_22)">
<path d="M67 3H19C10.1634 3 3 10.1634 3 19V67C3 75.8366 10.1634 83 19 83H67C75.8366 83 83 75.8366 83 67V19C83 10.1634 75.8366 3 67 3Z" fill="white"/>
<g clip-path="url(#clip0_620_22)">
<path d="M24.5505 33.0528H37.725V34.0966H25.7582V41.9524H37.0114V42.9962H25.7582V51.6211H37.8623V52.6649H24.5505V33.0528ZM38.9053 33.0528H40.305L46.5081 41.6777L52.8483 33.0528L61.4721 22.0972L47.304 42.5842L54.6049 52.6649H53.1502L46.5081 43.4906L39.8384 52.6649H38.4112L45.767 42.5842L38.9053 33.0528ZM55.1264 34.0966V33.0528H70.1399V34.0966H63.2232V52.6649H62.0156V34.0966H55.1264Z" fill="black"/>
<path d="M8.06862 33.0529H9.5782L30.3944 64.1027L21.7921 52.6649L9.33118 34.5361L9.27628 52.6649H8.06862V33.0529Z" fill="black"/>
<path d="M70.0182 51.3062C70.2679 51.3062 70.45 51.1156 70.45 50.8693C70.45 50.6231 70.2679 50.4325 70.0182 50.4325C69.7714 50.4325 69.5864 50.6231 69.5864 50.8693C69.5864 51.1156 69.7714 51.3062 70.0182 51.3062ZM71.2049 50.1569C71.2049 50.884 71.7306 51.3589 72.4973 51.3589C73.3138 51.3589 73.8073 50.8693 73.8073 50.0191V47.0258H73.1494V50.0162C73.1494 50.4882 72.9114 50.7403 72.4914 50.7403C72.1154 50.7403 71.8599 50.5058 71.8511 50.1569H71.2049ZM74.6679 50.1188C74.7149 50.8752 75.3465 51.3589 76.2864 51.3589C77.291 51.3589 77.9196 50.8517 77.9196 50.0426C77.9196 49.4064 77.5612 49.0546 76.6918 48.8523L76.2247 48.738C75.6725 48.609 75.4493 48.436 75.4493 48.134C75.4493 47.7529 75.7959 47.5037 76.3158 47.5037C76.8092 47.5037 77.15 47.747 77.2117 48.137H77.852C77.8138 47.4245 77.1852 46.9232 76.3246 46.9232C75.3993 46.9232 74.7825 47.4245 74.7825 48.178C74.7825 48.7995 75.132 49.1689 75.8987 49.3478L76.445 49.4797C77.006 49.6116 77.2528 49.8051 77.2528 50.1276C77.2528 50.5029 76.8651 50.7755 76.3363 50.7755C75.7694 50.7755 75.3758 50.5205 75.32 50.1188H74.6679Z" fill="black"/>
</g>
</g>
<defs>
<filter id="filter0_d_620_22" x="0" y="0" width="86" height="86" filterUnits="userSpaceOnUse" color-interpolation-filters="sRGB">
<feFlood flood-opacity="0" result="BackgroundImageFix"/>
<feColorMatrix in="SourceAlpha" type="matrix" values="0 0 0 0 0 0 0 0 0 0 0 0 0 0 0 0 0 0 127 0" result="hardAlpha"/>
<feOffset/>
<feGaussianBlur stdDeviation="1.5"/>
<feColorMatrix type="matrix" values="0 0 0 0 0.192157 0 0 0 0 0.196078 0 0 0 0 0.192157 0 0 0 0.4 0"/>
<feBlend mode="normal" in2="BackgroundImageFix" result="effect1_dropShadow_620_22"/>
<feBlend mode="normal" in="SourceGraphic" in2="effect1_dropShadow_620_22" result="shape"/>
</filter>
<clipPath id="clip0_620_22">
<rect width="70" height="42" fill="white" transform="translate(8 22)"/>
</clipPath>
</defs>
</svg>
