<svg width="86" height="86" viewBox="0 0 86 86" fill="none" xmlns="http://www.w3.org/2000/svg">
<g filter="url(#filter0_d_620_34)">
<path d="M67 3H19C10.1634 3 3 10.1634 3 19V67C3 75.8366 10.1634 83 19 83H67C75.8366 83 83 75.8366 83 67V19C83 10.1634 75.8366 3 67 3Z" fill="white"/>
<path d="M57.6254 57.1227C58.01 53.9527 57.8946 53.4889 60.2986 54.0025L60.9102 54.0562C62.7603 54.1367 65.1758 53.7649 66.5989 53.1171C69.6568 51.7219 71.4684 49.3952 68.4529 50.0046C61.5756 51.3999 61.1025 49.1115 61.1025 49.1115C68.3644 38.5246 71.403 25.0896 68.7798 21.8008C61.6333 12.8276 49.2595 17.0708 49.0518 17.1819L48.9865 17.1934C47.6287 16.9136 46.1055 16.7488 44.3977 16.722C41.286 16.6721 38.9205 17.5231 37.132 18.8608C37.132 18.8608 15.0577 9.92592 16.0847 30.0918C16.3001 34.3848 22.3427 62.5542 29.5508 54.0447C32.1855 50.9322 34.728 48.3027 34.728 48.3027C35.9934 49.1269 37.5051 49.5485 39.0936 49.399L39.2167 49.2955C39.1782 49.6827 39.1936 50.0583 39.2667 50.5068C37.4089 52.5421 37.9551 52.9025 34.2434 53.6499C30.4893 54.4127 32.6933 55.7658 34.1357 56.1184C35.8819 56.5477 39.9206 57.1572 42.6515 53.4008L42.54 53.8301C43.2708 54.4012 43.2208 57.943 43.3246 60.4728C43.4285 63.0026 43.5977 65.3638 44.1247 66.7552C44.6478 68.1466 45.2709 71.7344 50.1481 70.7071C54.2252 69.8485 57.3407 68.6143 57.6254 57.1227Z" fill="black" stroke="black" stroke-width="5.07183"/>
<path d="M68.4528 50.0046C61.5756 51.3999 61.1025 49.1115 61.1025 49.1115C68.3644 38.5245 71.403 25.0857 68.7798 21.7969C61.6333 12.8275 49.2595 17.0708 49.0518 17.1819L48.9864 17.1934C47.6287 16.9136 46.1055 16.7488 44.3977 16.7219C41.2822 16.6721 38.9205 17.5231 37.132 18.857C37.132 18.857 15.0577 9.92588 16.0847 30.0917C16.3001 34.3848 22.3427 62.5541 29.5508 54.0447C32.1855 50.9322 34.728 48.3027 34.728 48.3027C35.9934 49.1268 37.5051 49.5485 39.0936 49.399L39.2167 49.2955C39.1782 49.6826 39.1936 50.0583 39.2667 50.5068C37.4089 52.5421 37.9551 52.9024 34.2433 53.6499C30.4893 54.4127 32.6933 55.7657 34.1356 56.1184C35.8819 56.5477 39.9206 57.1572 42.6476 53.4007L42.5399 53.83C43.2669 54.4012 43.7785 57.552 43.6938 60.4076C43.6092 63.2633 43.5515 65.2258 44.1246 66.7552C44.6977 68.2884 45.267 71.7344 50.148 70.7071C54.2252 69.8485 56.3368 67.6253 56.6291 63.9149C56.8368 61.2777 57.3099 61.6687 57.3407 59.3114L57.7177 58.1959C58.1561 54.6197 57.7869 53.4659 60.2986 54.0025L60.9101 54.0562C62.7602 54.1367 65.1796 53.7649 66.5989 53.1133C69.6568 51.7218 71.4684 49.3952 68.4528 50.0046Z" fill="#336791"/>
<path d="M42.9439 52.0554C42.7554 58.7058 42.9939 65.4022 43.6554 67.0313C44.317 68.6603 45.7363 71.8265 50.6174 70.7992C54.6907 69.9406 56.1754 68.2809 56.8177 64.6126C57.2946 61.9141 58.2062 54.4243 58.3255 52.8872" stroke="white" stroke-width="1.69061" stroke-linecap="round" stroke-linejoin="round"/>
<path d="M37.0974 18.7113C37.0974 18.7113 15.0078 9.84157 16.0347 30.0074C16.254 34.3005 22.2966 62.4698 29.5008 53.9604C32.1356 50.8479 34.5165 48.4101 34.5165 48.4101" stroke="white" stroke-width="1.69061" stroke-linecap="round" stroke-linejoin="round"/>
<path d="M49.0288 17.09C48.2634 17.3276 61.3141 12.4059 68.7337 21.7165C71.3531 25.0053 68.3183 38.4402 61.0526 49.0272" stroke="white" stroke-width="1.69061" stroke-linecap="round" stroke-linejoin="round"/>
<path d="M61.0525 49.0273C61.0525 49.0273 61.5256 51.3156 68.4068 49.9204C71.4223 49.3109 69.6068 51.6376 66.549 53.0328C64.0412 54.1751 58.4178 54.4703 58.3255 52.8872C58.087 48.8126 61.2833 50.0507 61.0525 49.0273ZM61.0525 49.0273C60.8448 48.1073 59.414 47.2066 58.4716 44.9527C57.6447 42.9863 47.1479 27.9147 61.3795 30.1532C61.9026 30.0458 57.6677 16.8524 44.3478 16.6377C31.0278 16.4231 31.4663 32.7252 31.4663 32.7252" stroke="white" stroke-width="1.69061" stroke-linecap="round" stroke-linejoin="bevel"/>
<path d="M39.2167 50.4224C37.359 52.4578 37.9051 52.8181 34.1934 53.5693C30.4394 54.3283 32.6472 55.6814 34.0857 56.034C35.832 56.4633 39.8706 57.0728 42.6015 53.3164C43.4324 52.1741 42.5939 50.3496 41.4553 49.8858C40.9015 49.6596 40.163 49.3798 39.2167 50.4224Z" stroke="white" stroke-width="1.69061" stroke-linecap="round" stroke-linejoin="round"/>
<path d="M39.0937 50.388C38.909 49.1882 39.4937 47.7623 40.1245 46.0949C41.0707 43.5958 43.2554 41.0928 41.5092 33.1544C40.2053 27.24 31.4702 31.924 31.4663 32.7251C31.4625 33.5263 31.8625 36.792 31.3202 40.5906C30.6124 45.5506 34.5319 49.744 39.0437 49.3147" stroke="white" stroke-width="1.69061" stroke-linecap="round" stroke-linejoin="round"/>
<path d="M37.0166 32.6063C36.9782 32.8785 37.5282 33.6106 38.2436 33.7064C38.959 33.8061 39.5706 33.2349 39.6129 32.9628C39.6514 32.6868 39.1014 32.384 38.3821 32.2882C37.6667 32.1885 37.0551 32.3342 37.0166 32.6063Z" fill="white" stroke="white" stroke-width="0.563532"/>
<path d="M58.8178 32.0467C58.8563 32.3227 58.3101 33.0509 57.5908 33.1506C56.8754 33.2464 56.2638 32.6753 56.2215 32.4032C56.1869 32.131 56.7331 31.8282 57.4523 31.7285C58.1678 31.6327 58.7793 31.7745 58.8178 32.0467Z" fill="white" stroke="white" stroke-width="0.281766"/>
<path d="M61.3795 30.1531C61.4987 32.2996 60.9102 33.7638 60.8371 36.0522C60.7256 39.3755 62.4488 43.1817 59.8525 46.9918" stroke="white" stroke-width="1.69061" stroke-linecap="round" stroke-linejoin="round"/>
</g>
<defs>
<filter id="filter0_d_620_34" x="0" y="0" width="86" height="86" filterUnits="userSpaceOnUse" color-interpolation-filters="sRGB">
<feFlood flood-opacity="0" result="BackgroundImageFix"/>
<feColorMatrix in="SourceAlpha" type="matrix" values="0 0 0 0 0 0 0 0 0 0 0 0 0 0 0 0 0 0 127 0" result="hardAlpha"/>
<feOffset/>
<feGaussianBlur stdDeviation="1.5"/>
<feColorMatrix type="matrix" values="0 0 0 0 0.192157 0 0 0 0 0.196078 0 0 0 0 0.192157 0 0 0 0.4 0"/>
<feBlend mode="normal" in2="BackgroundImageFix" result="effect1_dropShadow_620_34"/>
<feBlend mode="normal" in="SourceGraphic" in2="effect1_dropShadow_620_34" result="shape"/>
</filter>
</defs>
</svg>
