<svg width="86" height="86" viewBox="0 0 86 86" fill="none" xmlns="http://www.w3.org/2000/svg">
<g filter="url(#filter0_d_619_2)">
<mask id="mask0_619_2" style="mask-type:alpha" maskUnits="userSpaceOnUse" x="3" y="3" width="80" height="80">
<path d="M67 3H19C10.1634 3 3 10.1634 3 19V67C3 75.8366 10.1634 83 19 83H67C75.8366 83 83 75.8366 83 67V19C83 10.1634 75.8366 3 67 3Z" fill="white"/>
</mask>
<g mask="url(#mask0_619_2)">
<path d="M75.1875 3H10.8125C6.49778 3 3 6.49778 3 10.8125V75.1875C3 79.5022 6.49778 83 10.8125 83H75.1875C79.5022 83 83 79.5022 83 75.1875V10.8125C83 6.49778 79.5022 3 75.1875 3Z" fill="#3178C6"/>
<path fill-rule="evenodd" clip-rule="evenodd" d="M52.1735 66.3042V74.0608C53.4423 74.7124 54.9932 75.1933 56.7163 75.5191C58.4395 75.8449 60.3193 76 62.1991 76C64.0789 76 65.8021 75.8294 67.5252 75.4725C69.2484 75.1157 70.6582 74.5262 71.9114 73.7661C73.1803 72.9439 74.2612 71.9045 74.8878 70.5083C75.5144 69.1121 76 67.5608 76 65.5441C76 64.1324 75.7807 62.9068 75.3577 61.8209C74.9348 60.735 74.3238 59.8042 73.4779 59.0285C72.679 58.2063 71.7548 57.4772 70.6582 56.8567C69.5617 56.2361 68.3085 55.5846 66.8986 54.9951C65.8647 54.5762 65.0188 54.1729 64.0789 53.7695C63.2643 53.3662 62.5594 52.9629 62.0424 52.5595C61.4628 52.1407 61.0242 51.7063 60.7109 51.2564C60.3976 50.791 60.241 50.2791 60.241 49.7051C60.241 49.1776 60.3804 48.6967 60.6639 48.2623C60.9475 47.828 61.3375 47.4712 61.8388 47.1609C62.3401 46.8506 62.9667 46.6179 63.7186 46.4473C64.4549 46.2767 65.2694 46.1991 66.225 46.1991C66.8829 46.1991 67.5722 46.2472 68.2615 46.3449C68.9821 46.4426 69.7183 46.5931 70.4546 46.7948C71.1908 46.9965 71.9114 47.2447 72.6477 47.5549C73.3369 47.8652 73.9792 48.222 74.5275 48.6254V41.3341C73.3369 40.8843 72.0211 40.543 70.6112 40.3258C69.2014 40.1086 67.6349 40 65.7551 40C63.8753 40 62.1521 40.2017 60.4289 40.5895C58.7058 40.9773 57.2959 41.5979 56.0427 42.4511C54.7739 43.2888 53.8496 44.3127 53.0664 45.7089C52.3301 47.012 51.9698 48.5012 51.9698 50.3628C51.9698 52.6898 52.6434 54.7065 54.0063 56.2579C55.3535 57.9643 57.4526 59.2054 60.1156 60.4464C61.1965 60.8808 62.1521 61.3152 63.092 61.734C64.0319 62.1529 64.8152 62.5873 65.4418 63.0371C66.1154 63.487 66.648 63.9835 67.0083 64.5109C67.3999 65.0384 67.6035 65.6589 67.6035 66.3725C67.6035 66.8689 67.4813 67.3343 67.2432 67.7687C67.0051 68.2031 66.6323 68.5754 66.131 68.8856C65.6297 69.1959 65.0188 69.4441 64.2512 69.6303C63.515 69.8009 62.6847 69.894 61.5882 69.894C59.865 69.894 58.1418 69.5992 56.5753 69.0097C54.8522 68.4202 53.2857 67.536 51.8758 66.3725L52.1735 66.3042ZM39.0148 47.223H49.0404V40.8625H21V47.223H31.0256V75.6122H39.0148V47.223Z" fill="white"/>
</g>
</g>
<defs>
<filter id="filter0_d_619_2" x="0" y="0" width="86" height="86" filterUnits="userSpaceOnUse" color-interpolation-filters="sRGB">
<feFlood flood-opacity="0" result="BackgroundImageFix"/>
<feColorMatrix in="SourceAlpha" type="matrix" values="0 0 0 0 0 0 0 0 0 0 0 0 0 0 0 0 0 0 127 0" result="hardAlpha"/>
<feOffset/>
<feGaussianBlur stdDeviation="1.5"/>
<feColorMatrix type="matrix" values="0 0 0 0 0.192157 0 0 0 0 0.196078 0 0 0 0 0.192157 0 0 0 0.4 0"/>
<feBlend mode="normal" in2="BackgroundImageFix" result="effect1_dropShadow_619_2"/>
<feBlend mode="normal" in="SourceGraphic" in2="effect1_dropShadow_619_2" result="shape"/>
</filter>
</defs>
</svg>
