<svg width="100" height="100" viewBox="0 0 100 100" fill="none" xmlns="http://www.w3.org/2000/svg">
<rect width="100" height="100" rx="20" fill="#0559C9"/>
<path d="M57.4805 37.5977C57.4805 35.5475 58.1549 33.6419 59.5039 31.8809C60.8529 30.1198 64.3581 29.2409 70.0195 29.2441V50.5859L69.0518 53.7041C68.5973 55.1909 67.9776 56.6221 67.2041 57.9707C66.5055 59.1834 65.6308 60.2855 64.6084 61.2412C63.6094 62.1667 62.4745 62.9338 61.2432 63.5156C59.9329 64.1276 58.5505 64.5715 57.1289 64.8369C57.3583 63.594 57.4763 62.3332 57.4814 61.0693L57.4805 37.5977ZM37.5 31.6602H40.0088V34.082H37.5V31.6602ZM40.0088 35.3408H42.5195V37.7676H40.0127L40.0088 35.3408ZM37.5 38.416H40.0098V40.8428H37.5V38.416ZM34.9932 42.0557H37.5V44.5234H34.9961L34.9932 42.0557ZM29.9805 29.1914H32.4873V31.6602H29.9805V29.1914ZM42.5195 61.0693C42.5195 63.1768 42.9082 65.0104 43.6855 66.5703C44.4629 68.1302 45.3213 69.4294 46.2607 70.4678C47.1982 71.5094 48.056 72.2822 48.834 72.7861L50 73.543C46.8626 73.543 44.0544 73.1029 41.5752 72.2227C39.096 71.3424 36.9984 70.1152 35.2822 68.541C33.5835 66.9914 32.2402 65.0925 31.3447 62.9746C30.4333 60.8366 29.9775 58.5254 29.9775 56.041V35.9482H32.4844V49.375H34.9941V46.9502H37.5V52.3633H40.0088V43.2686H42.5195V61.0693ZM51.7578 66.1367C54.0755 66.2227 56.2025 66.0491 58.1387 65.6162C59.9902 65.2155 61.7554 64.488 63.3516 63.4678C64.914 62.4499 66.2661 61.141 67.334 59.6123C68.4486 58.04 69.3431 56.1562 70.0176 53.9609V56.0449C70.0176 58.4128 69.6143 60.6146 68.8076 62.6504C68.013 64.6676 66.8063 66.497 65.2646 68.0215C63.7106 69.5671 61.8187 70.8161 59.5889 71.7686C57.359 72.721 54.8226 73.2839 51.9795 73.457L50.4824 72.6758C50.3659 72.5898 49.3981 71.8317 47.5791 70.4014C45.7601 68.971 44.5133 66.8128 43.8389 63.9268C44.9224 64.5696 46.0834 65.0717 47.2939 65.4209C48.5993 65.8115 50.0872 66.0501 51.7578 66.1367ZM34.9961 34.1279H37.4609V36.5547H34.9961V34.1279Z" fill="white"/>
</svg>
